<!--?xml version="1.0" standalone="no"?--><svg version="1.0" xmlns="http://www.w3.org/2000/svg" width="300.000000pt" height="212.000000pt" viewBox="0 0 300.000000 212.000000" preserveAspectRatio="xMidYMid meet">
<metadata>
  <rdf:rdf xmlns:rdf="http://www.w3.org/1999/02/22-rdf-syntax-ns#" xmlns:rdfs="http://www.w3.org/2000/01/rdf-schema#" xmlns:dc="http://purl.org/dc/elements/1.1/">
    <rdf:description dc:title="energy" dc:publisher="Hiox" dc:date="2015-04-04" dc:format="image/svg+xml" dc:language="en">
      <dc:creator>
        <rdf:bag>
          <rdf:li>svgimages.com</rdf:li>
        </rdf:bag>
      </dc:creator>
    </rdf:description>
  </rdf:rdf>
</metadata>
<g transform="translate(0.000000,212.000000) scale(0.100000,-0.100000)" fill="#8DC640" stroke="none">
<path class="node" id="node1" d="M1264 1863 c-14 -32 -68 -161 -119 -288 -51 -126 -122 -303 -159
-393 -36 -90 -66 -165 -66 -168 0 -2 110 -4 245 -4 135 0 245 -2 245 -4 0 -9
-73 -212 -82 -229 -5 -10 -27 -67 -48 -125 -57 -158 -126 -342 -145 -386 -9
-21 -14 -41 -11 -44 3 -3 8 -3 9 -1 2 2 75 92 161 199 87 107 233 287 326 400
140 172 234 288 438 541 l23 29 -231 0 -231 0 7 23 c4 12 18 47 31 77 13 30
40 93 58 140 19 47 50 123 69 170 20 47 36 93 36 103 0 16 -19 17 -265 17
l-265 0 -26 -57z"></path>
</g>
<g transform="translate(0.000000,212.000000) scale(0.100000,-0.100000)" fill="#FFFFFF" stroke="none">

</g>
</svg>